<?xml version="1.0" encoding="iso-8859-1"?>
<!-- Generator: Adobe Illustrator 16.0.0, SVG Export Plug-In . SVG Version: 6.00 Build 0)  -->
<!DOCTYPE svg PUBLIC "-//W3C//DTD SVG 1.1//EN" "http://www.w3.org/Graphics/SVG/1.1/DTD/svg11.dtd">
<svg version="1.1" id="Capa_1" xmlns="http://www.w3.org/2000/svg" xmlns:xlink="http://www.w3.org/1999/xlink" x="0px" y="0px"
	 width="790.869px" height="790.869px" viewBox="0 0 790.869 790.869" style="enable-background:new 0 0 790.869 790.869;"
	 xml:space="preserve">
<g>
	<g>
		<path d="M716.485,669.684c-0.493-5.625-1.146-11.234-1.964-16.822c-0.001-0.008-3.267-18.135-3.896-20.9
			c-7.263-31.865-27.061-55.23-53.807-73.355c-5.002-3.389-10.193-6.33-15.45-9.092c-6.929-3.643-111.646-38.055-114.372-38.91
			c0.644,3.58,1.084,7.541,1.229,11.842c14.581,10.24,57.56,47.195,38.043,116.346c0,0-30.854-36.779-62.331-41.506
			c-29.98,52.26-81.016,118.412-108.504,135.775c-27.487-17.363-78.522-83.516-108.502-135.777
			c-31.479,4.729-62.331,41.506-62.331,41.506c-19.517-69.148,23.461-106.104,38.043-116.344c0.145-4.301,0.585-8.262,1.228-11.842
			c-2.726,0.855-107.444,35.268-114.372,38.908c-5.255,2.764-10.447,5.703-15.45,9.094c-26.746,18.123-46.544,41.488-53.806,73.354
			c-0.631,2.77-3.896,20.896-3.896,20.9c-0.818,5.59-1.472,11.199-1.964,16.824c-0.021,0.234-1.194,29.508-1.193,29.676
			c0,0,0.302,13.717,0.472,16.992c0.94,18.195,4.757,35.117,18.037,49.217c16.923,17.961,37.479,25.314,61.586,25.301
			c80.715-0.037,161.433-0.047,242.148-0.049c80.719,0.002,161.435,0.012,242.149,0.049c24.106,0.014,44.663-7.34,61.586-25.301
			c13.279-14.1,17.097-31.02,18.036-49.217c0.171-3.275,0.473-16.992,0.473-16.992C717.678,699.193,716.507,669.918,716.485,669.684
			z"/>
		<path d="M205.505,340.578c2.507,9.057,4.111,17.579,4.05,25.67c-0.021,2.696-0.227,5.345-0.646,7.948
			c-2.266,7.657-18.4,33.464-20.976,37.8c28.429,30.65,66.08,37.76,103.213,45.584c10.979,2.312,22.172,3.701,34.067,5.24
			c3.836,0.697,7.699,1.414,11.587,2.154l-18.866,55.148c0,0-0.537,80.471,77.256,129.439h0.487
			c77.793-48.971,77.257-129.439,77.257-129.439l-18.866-55.146c3.888-0.74,7.751-1.457,11.587-2.154
			c11.896-1.539,23.088-2.93,34.067-5.238c37.134-7.826,74.784-14.936,103.214-45.584c-2.575-4.338-18.711-30.145-20.977-37.802
			c-0.42-2.604-0.625-5.252-0.646-7.948c-0.062-8.091,1.543-16.613,4.049-25.67c2.383-8.609,5.127-17.177,7.743-25.785
			c12.569-28.009,19.568-59.104,19.568-91.851c0-121.767-96.783-220.713-216.998-222.927V0c-0.082,0.001-0.162,0.006-0.244,0.007
			c-0.082-0.001-0.161-0.005-0.243-0.007v0.015c-120.213,2.214-216.996,101.16-216.996,222.927c0,32.745,6.999,63.841,19.569,91.851
			C200.378,323.401,203.123,331.967,205.505,340.578z"/>
	</g>
</g>
<g>
</g>
<g>
</g>
<g>
</g>
<g>
</g>
<g>
</g>
<g>
</g>
<g>
</g>
<g>
</g>
<g>
</g>
<g>
</g>
<g>
</g>
<g>
</g>
<g>
</g>
<g>
</g>
<g>
</g>
</svg>
